<?xml version="1.0" standalone="no"?>
<!DOCTYPE svg PUBLIC "-//W3C//DTD SVG 1.0//EN" "http://www.w3.org/TR/2001/REC-SVG-20010904/DTD/svg10.dtd">
<svg xmlns="http://www.w3.org/2000/svg" xmlns:xlink="http://www.w3.org/1999/xlink" id="body_1" width="512" height="384">

<g transform="matrix(3.0861967 0 0 3.0861967 -0 140.58397)">
    <path transform="matrix(1 0 0 1 -1.09 -8.67)"  d="M18.8 32.49C 17.606922 34.37302 15.396799 35.351646 13.200658 34.969353C 11.004517 34.58706 9.255087 32.91917 8.768482 30.743761C 8.2818775 28.568354 9.15398 26.314068 10.977951 25.03254C 12.801921 23.75101 15.218362 23.694748 17.099998 24.890001C 17.751087 25.29091 18.29909 25.838913 18.699999 26.490002L18.699999 26.490002L24.199999 22.390001C 22.03468 18.870514 18.127676 16.805931 14 17C 7.100979 16.78104 1.3282661 22.19128 1.1 29.09L1.1 29.09L1.1 29.59C 1.0570602 32.87522 2.3355846 36.039997 4.6484222 38.373516C 6.961259 40.70704 10.114525 42.013687 13.4 42L13.4 42L13.7 42C 19 42 22.2 39.8 24.4 36.5L24.4 36.5L18.8 32.49z" stroke="none" fill="#FFFFFF" fill-rule="nonzero" />
    <path transform="matrix(1 0 0 1 -1.09 -8.67)"  d="M25.9 34.49C 25.9 29.390001 29.699999 26.890001 35.3 26.890001C 37.268276 26.887764 39.224953 27.191387 41.1 27.79L41.1 27.79L41.1 27.390001C 41.1 24.890001 39.5 23.490002 36.3 23.490002C 34.03418 23.466667 31.787724 23.909151 29.699999 24.79L29.699999 24.79L27.999998 18.79C 31.074661 17.51742 34.372437 16.871464 37.699997 16.890001C 41.999996 16.890001 44.899998 17.890001 46.799995 19.79C 48.699993 21.69 49.399994 24.09 49.399994 27.390001L49.399994 27.390001L49.399994 41.190002L41.1 41.190002L41.1 38.690002C 39.33482 40.689423 36.765217 41.79068 34.1 41.690002C 29.4 42 25.9 39.29 25.9 34.49zM41.1 32.690002L41.1 31.590002C 40.04612 31.189259 38.927494 30.985874 37.8 30.990002C 35.399998 30.990002 33.899998 32.190002 33.899998 33.99L33.899998 33.99L33.899998 34.09C 33.899998 35.69 35.199997 36.69 36.899998 36.69C 37.91156 36.786804 38.919098 36.46894 39.69197 35.80917C 40.464844 35.1494 40.93687 34.20422 40.999996 33.19C 41.080833 33.036457 41.115562 32.862823 41.1 32.69z" stroke="none" fill="#FFFFFF" fill-rule="nonzero" />
    <path transform="matrix(1 0 0 1 -1.09 -8.67)"  d="M52.2 17.49L60.6 17.49L60.6 22.29C 62 18.990002 64.2 16.890001 68.2 17.09L68.2 17.09L68.2 26L67.5 26C 63.1 26 60.6 28.5 60.6 34.1L60.6 34.1L60.6 41.6L52.2 41.6L52.2 17.49z" stroke="none" fill="#FFFFFF" fill-rule="nonzero" />
    <path transform="matrix(1 0 0 1 -1.09 -8.67)"  d="M69.6 29.49C 69.6 21.59 74.5 16.89 80.2 16.89C 83.085205 16.802471 85.837326 18.104149 87.6 20.39L87.6 20.39L87.6 9.09L96 9.09L96 41.49L87.6 41.49L87.6 38.29C 85.83696 40.601093 83.10662 41.96995 80.2 42C 74.5 42 69.6 37.19 69.6 29.49zM87.6 29.49C 87.6 26.289999 85.4 23.99 82.7 23.99C 79.99999 23.99 77.799995 26.19 77.799995 29.39L77.799995 29.39L77.799995 29.49C 77.799995 32.69 79.99999 34.989998 82.7 34.989998C 85.4 34.989998 87.6 32.69 87.6 29.489998z" stroke="none" fill="#FFFFFF" fill-rule="nonzero" />
    <path transform="matrix(1 0 0 1 -1.09 -8.67)"  d="M99.4 17.49L107.8 17.49L107.8 41.489998L99.4 41.489998L99.4 17.49z" stroke="none" fill="#FFFFFF" fill-rule="nonzero" />
    <path transform="matrix(1 0 0 1 -1.09 -8.67)"  d="M111.2 9.09L119.6 9.09L119.6 41.49L111.2 41.49L111.2 9.09z" stroke="none" fill="#FFFFFF" fill-rule="nonzero" />
    <path transform="matrix(1 0 0 1 -1.09 -8.67)"  d="M135.1 24.19L132.3 24.19L132.3 17.59L135.1 17.59L135.1 17C 135.1 14.2 135.70001 12.2 137.1 10.8C 138.5 9.400001 140.5 8.700001 143.40001 8.700001C 145.2593 8.630787 147.11732 8.867266 148.90001 9.400001L148.90001 9.400001L148.90001 15.300001C 147.89543 14.987937 146.85175 14.819601 145.8 14.800001C 144.2 14.800001 143.40001 15.500001 143.40001 17.1L143.40001 17.1L143.40001 17.7L147.70001 17.7L147.70001 24.2L143.50002 24.2L143.50002 41.5L135.10002 41.5L135.1 24.19z" stroke="none" fill="#FFFFFF" fill-rule="nonzero" />
    <path transform="matrix(1 0 0 1 -1.09 -8.67)"  d="M151 17.49L159.4 17.49L159.4 22.29C 160.79999 18.990002 163 16.890001 167 17.09L167 17.09L167 26L166.3 26C 161.90001 26 159.40001 28.5 159.40001 34.1L159.40001 34.1L159.40001 41.6L151 41.6L151 17.49z" stroke="none" fill="#FFFFFF" fill-rule="nonzero" />
    <path d="M106.2 4.02C 106.200005 5.041727 105.83877 5.9138255 105.116295 6.6362953C 104.39383 7.3587656 103.52173 7.7200003 102.5 7.7200003C 101.47827 7.7200003 100.60618 7.3587656 99.883705 6.6362953C 99.16124 5.9138255 98.8 5.041727 98.8 4.02C 98.8 2.9982731 99.16124 2.1261747 99.883705 1.4037049C 100.60618 0.68123496 101.47827 0.31999993 102.5 0.31999993C 103.52173 0.31999993 104.39383 0.68123496 105.116295 1.4037049C 105.83877 2.1261747 106.200005 2.9982731 106.2 4.02C 106.200005 4.063056 106.19925 4.1060987 106.19775 4.149128" stroke="none" fill="#FFFFFF" fill-rule="nonzero" />
    <path d="M130.40001 28.62C 130.40001 29.752186 129.99973 30.718565 129.19914 31.519138C 128.39856 32.319717 127.43219 32.72 126.3 32.72C 125.16783 32.72 124.20145 32.319717 123.40086 31.519138C 122.600296 30.718565 122.20001 29.752186 122.200005 28.62C 122.20001 27.48782 122.600296 26.52144 123.40086 25.720863C 124.20145 24.92029 125.16783 24.520002 126.3 24.52C 127.43219 24.520002 128.39856 24.92029 129.19914 25.720863C 129.99973 26.52144 130.40001 27.48782 130.40001 28.62C 130.40001 28.667713 130.39917 28.715408 130.3975 28.763088" stroke="none" fill="#FFFFFF" fill-rule="nonzero" />
    <path d="M17 20.82C 17 21.92457 16.609476 22.867378 15.828427 23.648426C 15.047379 24.429476 14.10457 24.82 13 24.82C 11.895431 24.82 10.952621 24.429476 10.171573 23.648426C 9.390524 22.867378 9 21.92457 9 20.82C 9 19.715431 9.390524 18.772621 10.171573 17.991573C 10.952621 17.210526 11.895431 16.82 13 16.82C 14.10457 16.82 15.047379 17.210526 15.828427 17.991573C 16.609476 18.772621 17 19.715431 17 20.82C 17 20.866547 16.999187 20.91308 16.997562 20.959599" stroke="none" fill="#E0711B" fill-rule="nonzero" />
</g>
</svg>